HIERARCHY
ROOT Hips
{
	OFFSET 0.00000 0.00000 0.00000
	CHANNELS 6 Xposition Yposition Zposition Zrotation Yrotation Xrotation 
	JOINT LHipJoint
	{
		OFFSET 0 0 0
		CHANNELS 3 Zrotation Yrotation Xrotation
		JOINT LeftHip
		{
			OFFSET 1.29432 -1.88279 0.59910
			CHANNELS 3 Zrotation Yrotation Xrotation
			JOINT LeftKnee
			{
				OFFSET 2.63039 -7.22694 0.00000
				CHANNELS 3 Zrotation Yrotation Xrotation
				JOINT LeftAnkle
				{
					OFFSET 2.70674 -7.43672 0.00000
					CHANNELS 3 Zrotation Yrotation Xrotation
					JOINT LeftToe
					{
						OFFSET 0.15066 -0.41394 2.09027
						CHANNELS 3 Zrotation Yrotation Xrotation
						End Site
						{
							OFFSET 0.00000 -0.00000 1.07518
						}
					}
				}
			}
		}
	}
	JOINT RHipJoint
	{
		OFFSET 0 0 0
		CHANNELS 3 Zrotation Yrotation Xrotation
		JOINT RightHip
		{
			OFFSET -1.37068 -1.88279 0.59910
			CHANNELS 3 Zrotation Yrotation Xrotation
			JOINT RightKnee
			{
				OFFSET -2.57023 -7.06166 0.00000
				CHANNELS 3 Zrotation Yrotation Xrotation
				JOINT RightAnkle
				{
					OFFSET -2.76461 -7.59570 0.00000
					CHANNELS 3 Zrotation Yrotation Xrotation
					JOINT RightToe
					{
						OFFSET -0.24175 -0.64785 2.19719
						CHANNELS 3 Zrotation Yrotation Xrotation
						End Site
						{
							OFFSET -0.00000 -0.00000 1.14803
						}
					}
				}
			}
		}
	}
	JOINT lowerback
	{
		OFFSET 0 0 0
		CHANNELS 3 Zrotation Yrotation Xrotation
		JOINT Chest
		{
			OFFSET -0.03138 2.03983 -0.23106
			CHANNELS 3 Zrotation Yrotation Xrotation
			JOINT Chest2
			{
				OFFSET -0.00325 2.06238 -0.06878
				CHANNELS 3 Zrotation Yrotation Xrotation
				JOINT lowerneck
				{
					OFFSET 0 0 0
					CHANNELS 3 Zrotation Yrotation Xrotation
					JOINT Neck
					{
						OFFSET -0.00002 1.75318 0.18090
						CHANNELS 3 Zrotation Yrotation Xrotation
						JOINT Head
						{
							OFFSET 0.08806 1.75856 -0.25387
							CHANNELS 3 Zrotation Yrotation Xrotation
							End Site
							{
								OFFSET 0.02554 1.78597 -0.10684
							}
						}
					}
				}
				JOINT LeftCollar
				{
					OFFSET 0 0 0
					CHANNELS 3 Zrotation Yrotation Xrotation
					JOINT LeftShoulder
					{
						OFFSET 3.09657 1.33597 -0.04414
CHANNELS 3 Zrotation Xrotation Yrotation
						JOINT LeftElbow
						{
OFFSET 0 -5.342980 -0.000000
CHANNELS 3 Zrotation Xrotation Yrotation
							JOINT LeftWrist
							{
OFFSET 0 -3.672620 -0.000000
CHANNELS 3 Zrotation Xrotation Yrotation
								JOINT lhand
								{
									OFFSET 0 0 0
CHANNELS 3 Zrotation Xrotation Yrotation
									JOINT LFingers
									{
OFFSET 0 -0.599300 -0.000000
CHANNELS 3 Zrotation Xrotation Yrotation
										End Site
										{
OFFSET 0 -0.483170 -0.000000
										}
									}
								}
								JOINT LThumb
								{
OFFSET 0 0.000000 0.000000
CHANNELS 3 Zrotation Xrotation Yrotation
									End Site
									{
OFFSET 0 -0.490550 0.490550
									}
								}
							}
						}
					}
				}
				JOINT RightCollar
				{
					OFFSET 0 0 0
					CHANNELS 3 Zrotation Yrotation Xrotation
					JOINT RightShoulder
					{
						OFFSET -3.16460 1.32273 -0.23382
CHANNELS 3 Zrotation Xrotation Yrotation
						JOINT RightElbow
						{
OFFSET 0 -5.549670 0.033480
CHANNELS 3 Zrotation Xrotation Yrotation
							JOINT RightWrist
							{
OFFSET 0 -3.694010 0.000000
CHANNELS 3 Zrotation Xrotation Yrotation
								JOINT rhand
								{
									OFFSET 0 0 0
CHANNELS 3 Zrotation Xrotation Yrotation
									JOINT RFingers
									{
OFFSET 0 -0.638110 0.000000
CHANNELS 3 Zrotation Xrotation Yrotation
										End Site
										{
OFFSET 0 -0.514460 0.000000
										}
									}
								}
								JOINT RThumb
								{
OFFSET 0 0.000000 0.000000
CHANNELS 3 Zrotation Xrotation Yrotation
									End Site
									{
OFFSET 0 -0.522320 0.522320
									}
								}
							}
						}
					}
				}
			}
		}
	}
}
MOTION
Frames: 14
Frame Time: .0083333
20.3621 18.7513 16.4064 7.3989 -1.2880 3.2181 0.0000 0.0000 0.0000 -30.4432 8.1410 14.4780 0.1013 2.0524 5.6506 -0.4802 -12.9473 9.5186 0.5949 4.9376 13.7308 0.0000 0.0000 0.0000 12.2621 18.5916 -25.1276 -1.9420 -8.7442 24.9983 0.0200 -2.5172 -1.1477 -1.3563 -7.3721 20.8225 -8.6310 -5.0355 0.7222 -2.0840 -6.6947 1.2629 2.5426 -3.4296 1.6423 -16.0915 -19.5557 8.7255 25.7518 -29.4687 3.4054 8.3115 -14.9891 6.0137 -0.0000 -0.0000 0.0000 5.22 -4.1022 -31.4372 33.0231 -43.3478 13.4379 15.1721 19.4732 -25.0795 0.0 0.0 0.0 -7.1250 0.0 0.0 -15.4291 55.178 3.9244 -0.0000 -0.0000 0.0000 -0.2024 10.9191 -5.8623 -11.2412 -18.6569 -1.8523 -15.5537 25.7397 -18.6796 0.0 0.0 0.0 7.1250 0.0 -0.0 8.2081 10.7959 6.5951
20.3554 18.7541 16.5941 6.9058 -1.1943 2.7434 0.0000 0.0000 0.0000 -29.7298 7.7891 13.9258 0.2350 3.1198 8.6125 -0.4075 -12.5283 10.5643 0.8121 5.7507 16.0628 0.0000 0.0000 0.0000 12.9969 20.1724 -23.6580 -2.0451 -8.9594 25.6684 0.0779 -5.0143 -2.7214 -0.9840 -6.3140 17.6982 -8.0757 -5.1271 0.8014 -1.8768 -6.8147 1.4766 2.4458 -3.4957 1.7926 -16.5073 -19.6339 9.1558 26.0722 -29.6886 3.2945 8.4562 -15.1368 6.0798 0.0000 0.0000 0.0000 5.1462 -3.7843 -31.1624 32.8510 -43.2152 13.3199 15.5912 19.5719 -25.0934 0.0 0.0 0.0 -7.1250 0.0 0.0 -15.0122 55.2737 3.8499 0.0000 0.0000 0.0000 -0.4747 10.1632 -5.3157 -11.3845 -18.8752 -1.8984 -17.3766 23.9509 -20.2151 0.0 0.0 0.0 7.1250 0.0 -0.0 7.0951 9.0116 5.9431
20.3597 18.7665 16.7752 6.5170 -0.9914 2.3213 0.0000 0.0000 0.0000 -29.2776 7.0885 12.6731 0.5242 4.6398 12.8840 -0.4086 -12.6724 10.9244 0.5891 4.9140 13.6635 0.0000 0.0000 0.0000 13.7462 20.7378 -22.3650 -2.1263 -9.1244 26.1852 0.1306 -6.5562 -3.9389 -0.6116 -5.0052 13.9234 -7.4534 -5.1513 1.1079 -1.7719 -6.8725 1.5817 2.2413 -3.5171 1.6738 -16.5215 -19.7914 9.5505 26.2232 -29.9453 3.1638 8.4997 -15.2960 6.0621 -0.0000 0.0000 0.0000 5.1571 -3.4991 -31.1442 32.3951 -42.8599 13.0088 15.8725 19.6852 -25.0478 0.0 0.0 0.0 -7.1250 0.0 0.0 -14.7031 55.2843 3.7719 -0.0000 0.0000 0.0000 -0.4544 9.4337 -5.7712 -11.6082 -19.2145 -1.9714 -19.6839 22.9529 -21.2059 0.0 0.0 0.0 7.1250 0.0 -0.0 5.6840 7.6754 4.8987
20.3659 18.7662 16.9523 5.9457 -0.8867 2.1567 0.0000 0.0000 0.0000 -28.4773 6.7466 10.8269 0.9489 6.2036 17.3763 -0.3420 -12.5011 12.1622 0.8009 5.7120 15.9511 0.0000 0.0000 0.0000 14.8086 19.7108 -21.9535 -2.2051 -9.2808 26.6778 0.0596 -4.9331 -4.3203 -0.4282 -4.1996 11.6389 -6.6956 -5.1805 1.2061 -1.5630 -6.9191 1.6128 2.0537 -3.5315 1.5895 -16.1386 -19.9142 9.6306 25.9666 -30.0193 3.0702 8.3838 -15.3354 5.9296 0.0000 0.0000 0.0000 5.1072 -3.3256 -31.0168 31.7089 -42.3139 12.5444 16.0951 19.9929 -25.0584 0.0 0.0 0.0 -7.1250 0.0 0.0 -14.4823 55.3384 3.7327 0.0000 0.0000 0.0000 -0.5002 8.8374 -5.3567 -12.0031 -19.8092 -2.1033 -20.791 21.8925 -20.9677 0.0 0.0 0.0 7.1250 0.0 -0.0 4.9612 7.7594 4.2624
20.3526 18.7536 17.1169 4.7938 -1.0413 2.0435 0.0000 0.0000 0.0000 -26.8782 6.8130 8.8342 1.4409 7.5888 21.4718 -0.1962 -11.9485 13.9827 1.0109 6.3973 17.9417 0.0000 0.0000 0.0000 16.6111 18.7919 -21.6258 -2.2753 -9.4174 27.1098 0.0034 -3.3469 -4.6065 -0.1758 -2.7012 7.4480 -5.7535 -5.2374 1.2215 -1.0588 -6.9955 1.6734 2.0546 -3.5642 1.5982 -15.7800 -19.9577 9.6051 25.5607 -29.9696 3.0601 8.2391 -15.3034 5.7902 -0.0000 -0.0000 0.0000 4.8667 -3.1084 -30.4157 31.0755 -41.7976 12.1201 16.2753 20.2833 -25.283 0.0 0.0 0.0 -7.1250 0.0 0.0 -14.4146 55.5944 3.8051 -0.0000 -0.0000 0.0000 -0.7594 8.2829 -4.0547 -12.5012 -20.552 -2.2752 -20.3503 20.8216 -20.2514 0.0 0.0 0.0 7.1250 0.0 -0.0 5.1880 8.5714 4.3753
20.3365 18.7221 17.2776 3.9995 -1.0290 1.9532 0.0000 0.0000 0.0000 -25.5690 7.1456 6.8068 1.9909 8.8471 25.3181 -0.0434 -11.7250 16.0713 0.7800 5.6386 15.7393 0.0000 0.0000 0.0000 17.8750 17.9540 -21.3539 -2.3395 -9.5400 27.4996 -0.0156 -2.8065 -4.8225 -0.0755 -1.7724 4.8770 -5.2404 -5.3660 1.3430 -0.6122 -7.1796 1.5990 2.2442 -3.6497 1.4616 -15.7502 -20.0190 9.7957 25.1965 -30.0690 3.3031 8.1294 -15.3514 5.7850 0.0000 0.0000 0.0000 4.4496 -2.6389 -29.6261 30.4192 -41.25 11.685 16.2815 20.4908 -25.2314 0.0 0.0 0.0 -7.1250 0.0 0.0 -14.3816 55.5451 3.7788 0.0000 0.0000 0.0000 -1.0669 8.0154 -2.8102 -13.0385 -21.3437 -2.4673 -20.3429 19.4492 -20.2078 0.0 0.0 0.0 7.1250 0.0 -0.0 5.1896 8.6178 4.3718
20.3381 18.7271 17.4501 3.6645 -0.8515 1.8885 0.0000 0.0000 0.0000 -24.7796 7.2354 5.0853 2.5411 9.9123 28.6931 0.2351 -10.9368 18.6428 0.7613 5.5722 15.5480 0.0000 0.0000 0.0000 18.5002 16.5209 -21.1607 -2.3876 -9.6307 27.7889 -0.0532 -1.4887 -5.1749 -0.0579 -1.5521 4.2693 -4.9455 -5.5222 1.3494 -0.3469 -7.3912 1.5285 2.3548 -3.7518 1.3994 -15.5791 -20.1802 9.8864 24.6289 -30.2635 3.5990 7.9153 -15.4331 5.7737 0.0000 -0.0000 0.0000 4.017 -2.2705 -28.8759 29.5082 -40.4681 11.0891 16.6404 21.1543 -25.1855 0.0 0.0 0.0 -7.1250 0.0 0.0 -13.9913 55.5715 3.6823 0.0000 -0.0000 0.0000 -1.3628 7.7373 -1.7111 -13.5892 -22.1444 -2.6713 -21.1687 17.987 -19.8738 0.0 0.0 0.0 7.1250 0.0 -0.0 4.6336 8.8478 3.8788
20.3419 18.7422 17.6152 3.3933 -0.6315 1.8014 0.0000 0.0000 0.0000 -24.1020 6.9299 3.6100 3.0676 10.8037 31.6207 0.6005 -9.7635 21.2787 0.6729 5.2455 14.6102 0.0000 0.0000 0.0000 19.0060 15.1663 -20.9822 -2.4482 -9.7431 28.1488 -0.0948 0.0203 -5.8060 -0.0349 -1.2051 3.3132 -4.6464 -5.5980 1.2467 -0.1865 -7.4831 1.6613 2.3341 -3.8016 1.5838 -15.2988 -20.3458 9.7948 24.3650 -30.4306 3.6839 7.7673 -15.4980 5.7583 -0.0000 0.0000 0.0000 3.8179 -2.3189 -28.4289 28.4300 -39.5091 10.3961 17.0847 21.8006 -25.3145 0.0 0.0 0.0 -7.1250 0.0 0.0 -13.6020 55.7877 3.6489 -0.0000 0.0000 0.0000 -1.391 7.0102 -1.1106 -14.1283 -22.9178 -2.8779 -21.8047 16.963 -18.9011 0.0 0.0 0.0 7.1250 0.0 -0.0 4.1480 9.779 3.3924
20.3431 18.7642 17.7801 3.4369 -0.2365 1.8412 0.0000 0.0000 0.0000 -23.7905 6.2474 2.1304 3.5878 11.5907 34.2989 1.0654 -8.1576 24.0563 0.6516 5.1634 14.3751 0.0000 0.0000 0.0000 19.0763 13.9881 -20.8078 -2.4703 -9.7837 28.2792 -0.1243 0.9550 -6.3910 -0.0389 -1.2723 3.4982 -4.6087 -5.6852 1.0550 -0.1327 -7.5891 1.6923 2.3422 -3.8579 1.7333 -15.2977 -20.4454 9.8577 24.3679 -30.6087 3.8452 7.7362 -15.5799 5.8353 0.0000 -0.0000 0.0000 3.687 -2.248 -28.1023 27.4376 -38.5933 9.7708 16.8894 21.8478 -25.3342 0.0 0.0 0.0 -7.1250 0.0 0.0 -13.8127 55.7679 3.7002 0.0000 -0.0000 0.0000 -1.3545 6.1972 -1.0592 -14.4088 -23.3161 -2.988 -22.4996 15.7077 -19.294 0.0 0.0 0.0 7.1250 0.0 -0.0 3.7284 9.2625 3.0864
20.3502 18.7700 17.9395 3.2767 0.1130 1.9182 0.0000 0.0000 0.0000 -23.3302 5.4226 0.6949 4.1358 12.3390 36.9419 1.5595 -6.3782 26.6399 0.7013 5.3529 14.9177 0.0000 0.0000 0.0000 19.3342 13.0506 -20.5580 -2.4799 -9.8013 28.3357 -0.1471 1.6067 -6.8614 -0.0509 -1.4553 4.0025 -4.3505 -5.8495 1.0270 0.0196 -7.8117 1.5371 2.3592 -3.9619 1.5922 -15.1133 -20.5129 9.9562 24.1370 -30.7105 4.0873 7.6416 -15.6217 5.8450 0.0000 0.0000 0.0000 3.4128 -1.8416 -27.4435 26.6086 -37.8034 9.2582 16.7456 21.666 -25.6997 0.0 0.0 0.0 -7.1250 0.0 0.0 -14.1511 56.0986 3.9078 0.0000 0.0000 0.0000 -1.59 5.7944 -0.2157 -14.7256 -23.7625 -3.1145 -22.9257 13.8836 -19.826 0.0 0.0 0.0 7.1250 0.0 -0.0 3.4987 8.6342 2.9395
20.3064 18.7647 18.0998 2.0889 -0.2105 1.7163 0.0000 0.0000 0.0000 -21.5271 5.3266 -0.7588 4.7246 13.0668 39.6192 1.8792 -6.1931 28.7294 0.3462 3.7807 10.4605 0.0000 0.0000 0.0000 20.9835 14.2528 -19.2581 -2.4738 -9.7901 28.2996 -0.1661 0.6636 -7.4896 -0.0454 -1.3747 3.7805 -3.9107 -5.8306 1.1454 0.5982 -7.7963 1.5909 2.7183 -3.9560 1.6025 -14.9711 -20.4990 10.2814 24.3155 -30.6722 3.8312 7.7372 -15.6364 5.7165 -0.0000 -0.0000 0.0000 3.1074 -1.5911 -26.5258 25.6131 -36.8241 8.6547 17.1232 21.5046 -25.689 0.0 0.0 0.0 -7.1250 0.0 0.0 -13.7563 56.165 3.8181 -0.0000 -0.0000 0.0000 -1.8858 5.6006 1.4944 -15.4384 -24.7533 -3.4074 -23.1162 11.888 -19.4675 0.0 0.0 0.0 7.1250 0.0 -0.0 3.3445 8.9851 2.786
20.2828 18.7797 18.2470 1.9990 -0.1175 1.7220 0.0000 0.0000 0.0000 -21.0409 4.8222 -2.3167 5.3167 13.7318 42.1736 2.0186 -6.9828 30.0793 0.0504 1.4485 3.9839 0.0000 0.0000 0.0000 21.2774 14.6239 -18.4589 -2.4494 -9.7453 28.1558 -0.1830 0.1934 -8.0118 -0.0429 -1.3373 3.6774 -4.1720 -5.8566 1.2148 0.7901 -7.8379 1.5617 3.0620 -3.9822 1.5999 -15.0441 -20.5525 10.6304 24.6007 -30.7883 3.6635 7.8512 -15.7260 5.6964 -0.0000 0.0000 0.0000 2.9395 -1.5329 -25.9107 24.4313 -35.6171 7.9564 16.9721 21.3084 -25.2537 0.0 0.0 0.0 -7.1250 0.0 0.0 -13.6866 55.7051 3.6445 -0.0000 0.0000 0.0000 -1.9568 5.2888 2.4159 -16.1849 -25.7707 -3.726 -22.9578 10.9946 -18.8439 0.0 0.0 0.0 7.1250 0.0 -0.0 3.3940 9.6716 2.7805
20.2684 18.7950 18.3989 2.0554 0.0051 1.7018 0.0000 0.0000 0.0000 -20.7627 4.2887 -3.8138 5.9355 14.3656 44.7224 2.0961 -7.2393 30.7115 0.0013 0.2306 0.6337 0.0000 0.0000 0.0000 21.3885 14.6533 -17.6850 -2.4140 -9.6798 27.9459 -0.2034 -0.0292 -8.5284 -0.0691 -1.6959 4.6658 -4.3025 -5.7904 1.2362 0.7947 -7.7513 1.5498 3.1425 -3.9402 1.5865 -14.8563 -20.7388 10.7472 24.6706 -31.0753 3.7902 7.8099 -15.8643 5.7599 -0.0000 -0.0000 0.0000 3.0002 -1.4678 -25.7597 23.4710 -34.5998 7.404 16.1639 21.1185 -25.773 0.0 0.0 0.0 -7.1250 0.0 0.0 -14.7878 56.0523 4.0724 -0.0000 -0.0000 0.0000 -1.8396 4.8891 2.7843 -16.7980 -26.5907 -3.9965 -22.539 10.5568 -18.2014 0.0 0.0 0.0 7.1250 0.0 -0.0 3.6158 10.4148 2.9085
20.2552 18.8252 18.5609 2.0755 0.0163 1.6808 0.0000 0.0000 0.0000 -20.5272 3.8368 -5.1191 6.5250 14.9185 47.0541 2.0535 -7.0034 30.3102 0.0000 -0.0252 -0.0693 0.0000 0.0000 0.0000 21.5516 14.6503 -16.8325 -2.3717 -9.6007 27.6932 -0.2281 -0.1387 -9.0715 -0.0947 -1.9844 5.4624 -4.4578 -5.7563 1.1791 0.8317 -7.7044 1.5603 3.2578 -3.9209 1.6511 -14.7385 -20.8725 10.7961 24.8768 -31.3109 3.8959 7.8148 -15.9749 5.8533 -0.0000 0.0000 0.0000 2.9179 -1.3191 -25.1083 22.6796 -33.7365 6.9595 15.6348 21.7123 -26.2734 0.0 0.0 0.0 -7.1250 0.0 0.0 -15.6065 56.4323 4.4505 -0.0000 0.0000 0.0000 -1.8554 4.5 3.5341 -17.3556 -27.3241 -4.2493 -22.6157 9.5067 -17.8949 0.0 0.0 0.0 7.1250 0.0 -0.0 3.5421 10.7293 2.8263
